{"title":"Power (2014) [Hindi-Telugu] 720p","uid":12861205,"size":1669204326,"categoryP":"video","categoryS":"movies","magnet":"?xt=urn:btih:60c2e150b1f9a4bb7c5a2b8f49b81de60e6ef44b&amp;dn=Power+%282014%29+%5BHindi-Telugu%5D+720p&amp;tr=udp%3A%2F%2Ftracker.leechers-paradise.org%3A6969&amp;tr=udp%3A%2F%2Fzer0day.ch%3A1337&amp;tr=udp%3A%2F%2Fopen.demonii.com%3A1337&amp;tr=udp%3A%2F%2Ftracker.coppersurfer.tk%3A6969&amp;tr=udp%3A%2F%2Fexodus.desync.com%3A6969","seeders":0,"leechers":1,"uploader":"SahibDM","files":1,"time":1448740652,"description":"COVER:-\r\n \nhttp://is3.mzstatic.com/image/thumb/Video3/v4/6d/71/24/6d712405-e83f-5249-7078-6bfe89a8588e/source/1400x2100sr.jpg\r\n\r\nINFORMATION:-\r\n\r\nRavi Teja plays a young man desperate to become a police officer, who becomes embroiled in a plot to pose as his lookalike in order to re-capture an infamous thug from rogue cops.\r\n\r\nGeneral\r\nFormat : Matroska\r\nFormat version : Version 4 / Version 2\r\nFile size : 1.55 GiB\r\nDuration : 2h 23mn\r\nOverall bit rate : 1 555 Kbps\r\n\r\nVideo\r\nID : 1\r\nFormat : AVC\r\nCodec ID : V_MPEG4/ISO/AVC\r\nDuration : 2h 23mn\r\nBit rate : 1 074 Kbps\r\nWidth : 1 280 pixels\r\nHeight : 576 pixels\r\nFrame rate : 23.976 fps\r\nWriting library : x264 core 79\r\n\r\nAudio #1\r\nID : 2\r\nFormat : AC-3\r\nFormat/Info : Audio Coding 3\r\nFormat profile : Dolby Digital\r\nDuration : 2h 23mn\r\nBit rate mode : Constant\r\nBit rate : 192 Kbps\r\nChannel(s) : 2 channels\r\nChannel positions : Front: L R\r\nSampling rate : 44.1 KHz\r\nCompression mode : Lossy\r\nStream size : 197 MiB (12%)\r\nTitle : Hindi Goldmines Version DD 2.0 CH\r\nLanguage : Hindi\r\n\r\nAudio #2\r\nID : 3\r\nFormat : AC-3\r\nFormat/Info : Audio Coding 3\r\nFormat profile : Dolby Digital\r\nDuration : 2h 23mn\r\nBit rate mode : Constant\r\nBit rate : 192 Kbps\r\nChannel(s) : 2 channels\r\nChannel positions : Front: L R\r\nSampling rate : 44.1 KHz\r\nCompression mode : Lossy\r\nStream size : 197 MiB (12%)\r\nTitle : Hindi WAM India Version DD 2.0 CH\r\nLanguage : Hindi\r\n\r\nAudio #3\r\nID : 4\r\nFormat : AC-3\r\nFormat/Info : Audio Coding 3\r\nDuration : 2h 23mn\r\nBit rate mode : Constant\r\nBit rate : 96.0 Kbps\r\nChannel(s) : 2 channels\r\nChannel positions : Front: L R\r\nSampling rate : 48.0 KHz\r\nCompression mode : Lossy\r\nStream size : 98.3 MiB (6%)\r\nLanguage : Telugu\r\n\r\nText\r\nID : 5\r\nFormat : UTF-8\r\nCodec ID : S_TEXT/UTF8\r\nCodec ID/Info : UTF-8 Plain Text\r\nLanguage : English\r\nDefault : Yes\r\nForced : No\r\n\r\nSCREENSHOTS:-\r\n \nhttp://s19.postimg.org/hl8gvf98z/Screen_1.png \nhttp://s19.postimg.org/6kdbqeh03/Screen_2.png \nhttp://s19.postimg.org/uka9yftzn/Screen_3.png \nhttp://s19.postimg.org/uzljrgfwz/Screen_6.png \nhttp://s19.postimg.org/viqn0q7bn/Screen_7.png \nhttp://s19.postimg.org/fupftxrpv/Screen_8.png\r\n\r\nTHANK YOU!","torrent":{"xt":"urn:btih:60c2e150b1f9a4bb7c5a2b8f49b81de60e6ef44b","amp;dn":"Power+%282014%29+%5BHindi-Telugu%5D+720p","amp;tr":["udp%3A%2F%2Ftracker.leechers-paradise.org%3A6969","udp%3A%2F%2Fzer0day.ch%3A1337","udp%3A%2F%2Fopen.demonii.com%3A1337","udp%3A%2F%2Ftracker.coppersurfer.tk%3A6969","udp%3A%2F%2Fexodus.desync.com%3A6969"],"infoHash":"60c2e150b1f9a4bb7c5a2b8f49b81de60e6ef44b","infoHashBuffer":{"type":"Buffer","data":[96,194,225,80,177,249,164,187,124,90,43,143,73,184,29,230,14,110,244,75]},"announce":[],"urlList":[]}}